<?xml version="1.0" standalone="no"?>
<!DOCTYPE svg PUBLIC "-//W3C//DTD SVG 20010904//EN"
 "http://www.w3.org/TR/2001/REC-SVG-20010904/DTD/svg10.dtd">
<svg version="1.0" xmlns="http://www.w3.org/2000/svg"
 width="512.000000pt" height="512.000000pt" viewBox="0 0 512.000000 512.000000"
 preserveAspectRatio="xMidYMid meet">
<metadata>
Created by potrace 1.14, written by Peter Selinger 2001-2017
</metadata>
<g transform="translate(0.000000,512.000000) scale(0.100000,-0.100000)"
fill="#000000" stroke="none">
<path d="M2210 3583 c-19 -2 -464 -56 -989 -119 -1048 -125 -991 -115 -1046
-194 -69 -100 -106 -293 -85 -449 11 -81 46 -189 77 -237 12 -19 10 -28 -17
-82 -48 -96 -64 -172 -64 -302 0 -125 16 -203 60 -295 l25 -55 -30 -37 c-158
-198 -181 -712 -44 -991 38 -78 111 -154 160 -167 16 -4 648 -80 1406 -169
l1378 -163 277 33 c152 18 296 36 320 39 l42 6 0 -163 c0 -177 6 -204 53 -226
56 -27 73 -7 251 292 l23 39 92 -122 c98 -130 125 -150 169 -129 45 22 52 49
52 226 0 147 2 162 18 162 9 0 178 20 376 44 393 48 399 50 399 115 0 39 -23
65 -73 80 -30 9 -47 23 -67 54 -35 55 -68 154 -83 249 -16 101 -8 352 14 433
37 132 92 218 146 230 33 7 56 31 65 66 8 31 -15 62 -65 87 -27 13 -40 30 -60
77 -23 55 -25 73 -25 205 0 132 2 150 25 205 20 49 32 64 65 81 52 26 74 68
54 103 -8 13 -32 34 -54 45 -33 17 -45 32 -65 81 -23 55 -25 73 -25 205 0 132
2 150 25 205 20 47 33 64 60 77 19 10 41 25 48 35 17 24 15 67 -6 93 -17 22
-77 29 -1323 176 -1217 144 -1470 169 -1559 157z m1165 -264 c528 -62 963
-115 967 -118 4 -3 -289 -41 -650 -84 l-657 -79 -990 116 c-545 64 -1001 119
-1015 123 -40 10 1136 151 1270 152 89 1 335 -24 1075 -110z m-2907 -135 c75
-9 138 -16 138 -17 1 -1 -7 -36 -19 -77 -24 -88 -29 -315 -9 -414 7 -33 10
-61 8 -63 -2 -3 -64 3 -138 12 -148 18 -145 16 -180 104 -19 48 -22 75 -22
191 0 138 12 197 51 257 18 27 2 27 171 7z m440 -50 c70 -9 535 -64 1034 -123
499 -59 910 -110 913 -112 2 -3 -4 -28 -14 -55 -44 -115 -51 -304 -16 -438 9
-32 14 -60 13 -61 -2 -1 -390 44 -863 100 l-860 101 -14 39 c-11 28 -15 91
-16 215 -1 96 -5 185 -9 197 -17 52 -107 47 -133 -9 -16 -31 -21 -242 -10
-348 l8 -76 -88 9 c-48 5 -90 11 -92 13 -2 2 -12 38 -22 81 -32 134 -23 342
20 456 6 15 13 27 17 27 3 0 63 -7 132 -16z m3932 -47 c0 -6 -5 -28 -10 -47
-36 -119 -31 -312 11 -438 12 -35 19 -65 18 -66 -2 -2 -412 -51 -911 -111
-736 -88 -910 -106 -922 -96 -8 7 -25 38 -38 69 -20 50 -22 75 -22 202 0 127
2 152 22 202 13 31 30 62 38 69 10 8 346 53 902 120 488 59 893 107 900 108 6
1 12 -5 12 -12z m-3768 -692 c853 -100 1232 -146 1236 -150 1 -1 -7 -42 -19
-91 -24 -97 -30 -251 -16 -387 l8 -78 -68 7 c-37 3 -74 12 -80 18 -7 6 -22 49
-34 96 -18 72 -20 100 -15 209 4 69 7 137 7 150 1 33 -33 64 -72 64 -46 0 -75
-38 -86 -110 -11 -82 -6 -246 10 -325 l15 -68 -32 0 c-85 1 -1606 188 -1620
199 -8 7 -25 38 -38 69 -19 49 -22 76 -23 197 0 109 4 151 18 190 22 66 43 95
68 95 10 0 344 -38 741 -85z m3768 -26 c0 -6 -7 -39 -16 -73 -25 -93 -22 -271
5 -366 12 -41 24 -84 27 -95 5 -20 -21 -24 -905 -129 -734 -88 -913 -107 -925
-97 -9 7 -25 38 -38 69 -20 50 -22 75 -22 202 0 127 2 152 22 202 13 31 30 62
38 69 10 8 349 53 902 120 1036 125 912 112 912 98z m-2140 -165 c85 -10 157
-19 159 -20 1 -2 -6 -31 -18 -66 -43 -129 -48 -274 -14 -421 8 -37 14 -70 11
-72 -2 -2 -89 6 -193 18 l-190 22 -18 70 c-27 105 -20 333 13 429 l23 68 36
-5 c20 -3 106 -14 191 -23z m-2268 -453 c32 -4 60 -10 63 -13 3 -3 -8 -45 -24
-94 -53 -159 -64 -245 -58 -464 5 -183 21 -304 52 -383 7 -17 3 -18 -56 -11
-117 13 -129 20 -171 104 -21 41 -45 102 -54 135 -22 82 -30 334 -15 431 22
131 71 252 119 292 17 13 56 14 144 3z m381 -50 c4 -4 -4 -41 -18 -82 -38
-110 -53 -181 -65 -310 -12 -129 -1 -314 26 -434 8 -38 18 -84 21 -101 l5 -31
-53 8 c-30 4 -61 8 -70 8 -16 1 -42 66 -76 191 -14 53 -18 104 -17 275 0 232
10 291 73 429 l30 68 68 -7 c38 -4 71 -10 76 -14z m732 -82 c286 -33 525 -62
532 -64 8 -3 4 -27 -13 -82 -77 -248 -79 -568 -4 -821 l18 -63 -41 6 c-54 7
-1057 125 -1067 125 -12 0 -69 188 -81 270 -18 118 -6 398 20 488 33 112 76
202 98 202 10 0 252 -27 538 -61z m3260 14 c-59 -147 -79 -259 -78 -448 1
-137 4 -174 26 -257 14 -53 39 -127 56 -165 16 -37 27 -69 23 -70 -4 -1 -104
-14 -222 -28 -118 -14 -232 -28 -252 -31 l-38 -6 0 246 0 246 31 0 c45 0 93
51 84 88 -3 15 -14 35 -23 46 -22 23 -59 21 -475 -30 -332 -40 -342 -43 -353
-101 -5 -26 -1 -37 19 -57 15 -14 38 -26 52 -26 l25 0 0 -245 c0 -189 -3 -245
-12 -245 -7 0 -149 -16 -315 -36 -167 -20 -314 -33 -327 -30 -48 12 -104 129
-132 274 -16 87 -19 303 -3 388 23 131 85 272 127 289 20 9 1688 212 1751 214
37 1 42 -1 36 -16z m-2448 -109 l51 -7 -19 -56 c-45 -129 -62 -248 -62 -426
-1 -178 14 -291 52 -414 l20 -64 -66 6 c-35 2 -69 9 -74 14 -18 18 -69 168
-84 247 -20 104 -20 358 0 464 14 72 33 135 64 215 12 30 24 32 118 21z m378
-44 c55 -7 101 -13 103 -14 1 -2 -11 -32 -28 -68 -17 -35 -42 -109 -56 -164
-24 -87 -27 -118 -27 -264 0 -176 11 -253 58 -390 l25 -73 -78 7 c-150 13
-150 13 -173 65 -56 126 -72 207 -77 395 -5 224 12 345 74 491 14 34 18 37 47
32 18 -4 77 -11 132 -17z m1425 -732 c-1 -308 -2 -341 -16 -323 -96 127 -103
135 -138 135 -45 0 -68 -21 -121 -110 l-45 -75 0 338 c0 185 1 337 3 338 4 1
282 37 300 38 16 1 17 -21 17 -341z"/>
</g>
</svg>
