<?xml version="1.0" standalone="no"?>
<!DOCTYPE svg PUBLIC "-//W3C//DTD SVG 20010904//EN"
 "http://www.w3.org/TR/2001/REC-SVG-20010904/DTD/svg10.dtd">
<svg version="1.0" xmlns="http://www.w3.org/2000/svg"
 width="512.000000pt" height="512.000000pt" viewBox="0 0 512.000000 512.000000"
 preserveAspectRatio="xMidYMid meet">
<metadata>
Created by potrace 1.14, written by Peter Selinger 2001-2017
</metadata>
<g transform="translate(0.000000,512.000000) scale(0.100000,-0.100000)"
fill="#000000" stroke="none">
<path d="M1233 3471 c-962 -117 -972 -118 -1008 -145 -91 -70 -145 -226 -145
-421 0 -97 20 -187 62 -277 l31 -68 -31 -67 c-50 -108 -65 -190 -59 -323 4
-115 35 -240 72 -292 12 -18 10 -25 -22 -69 -138 -192 -173 -607 -77 -899 47
-143 121 -234 210 -259 21 -6 655 -83 1408 -171 l1370 -161 318 39 318 38 0
-174 c0 -170 0 -173 25 -197 25 -26 63 -32 94 -15 10 5 60 79 111 165 51 85
95 155 99 155 3 -1 44 -53 91 -116 47 -64 93 -120 102 -125 30 -16 68 -10 93
16 25 24 25 27 25 194 0 169 0 171 23 176 25 5 695 85 715 85 7 0 24 11 37 25
48 47 23 120 -45 134 -149 30 -221 495 -124 791 34 102 70 152 119 168 49 15
75 45 75 84 0 33 -39 78 -68 78 -42 0 -92 150 -92 280 0 130 50 280 92 280 30
0 68 45 68 80 0 35 -38 80 -68 80 -42 0 -92 150 -92 280 0 82 23 190 50 238
12 20 36 44 53 52 46 22 64 59 48 97 -7 17 -22 35 -34 41 -38 20 -2572 314
-2732 318 -129 3 -218 -6 -1112 -115z m-319 -342 c143 -16 136 -13 123 -54 -8
-27 -16 -35 -34 -35 -43 0 -70 -40 -78 -116 -9 -75 -1 -308 11 -338 6 -16 3
-18 -32 -13 -21 4 -62 9 -91 12 l-51 7 -19 71 c-25 98 -24 305 1 397 10 36 20
68 22 72 7 11 41 10 148 -3z m3910 -91 c-35 -128 -28 -320 16 -445 l18 -52
-41 -6 c-23 -3 -431 -53 -907 -110 l-865 -104 -22 25 c-72 80 -82 346 -18 480
l25 51 233 28 c127 15 520 63 872 105 352 43 654 78 672 79 l31 1 -14 -52z
m-3624 -663 c459 -53 841 -99 847 -101 23 -6 1 -34 -27 -34 -51 0 -77 -32 -90
-113 -14 -81 -8 -287 10 -350 6 -22 10 -40 8 -42 -2 -2 -367 40 -813 92 -628
73 -814 98 -828 111 -10 8 -28 47 -40 86 -55 175 -5 471 77 453 11 -3 397 -49
856 -102z m3622 -62 c-11 -41 -16 -100 -16 -198 0 -126 2 -148 26 -215 14 -41
25 -76 23 -78 -2 -2 -410 -52 -907 -112 l-903 -109 -22 25 c-72 80 -82 346
-18 480 l25 51 267 32 c148 18 540 65 873 106 333 40 619 73 637 74 l31 1 -16
-57z m-2137 -113 c88 -11 163 -20 166 -20 3 0 -6 -33 -20 -72 -23 -67 -26 -86
-25 -228 1 -112 5 -168 16 -202 15 -44 15 -48 0 -48 -43 0 -358 42 -364 48
-13 13 -38 184 -38 261 0 82 19 184 44 244 18 44 8 43 221 17z m-2254 -456
l65 -6 -32 -97 c-73 -217 -84 -493 -29 -751 7 -36 17 -73 21 -83 6 -18 2 -18
-62 -12 -104 11 -117 21 -164 121 -48 104 -65 200 -64 369 0 171 22 281 74
384 34 68 64 94 100 87 14 -3 55 -8 91 -12z m376 -48 c2 -2 -10 -43 -26 -92
-16 -49 -36 -131 -45 -183 -19 -110 -21 -347 -5 -452 6 -39 9 -72 7 -73 -9 -8
-132 14 -138 24 -17 27 -30 164 -31 310 -1 195 15 277 79 424 l26 58 65 -6
c36 -4 67 -8 68 -10z m762 -86 c276 -32 505 -61 508 -63 2 -3 -5 -32 -16 -65
-45 -138 -56 -219 -56 -422 0 -197 15 -320 50 -420 8 -22 11 -40 7 -40 -52 1
-1086 130 -1092 136 -12 13 -50 128 -66 204 -8 36 -17 121 -20 190 -10 189 16
340 83 492 25 57 26 58 62 53 20 -3 263 -32 540 -65z m3228 23 c-65 -197 -81
-305 -75 -493 6 -148 27 -248 77 -366 16 -38 27 -72 23 -75 -6 -5 -459 -60
-489 -59 -10 0 -13 54 -13 235 l0 235 28 5 c72 15 105 58 86 112 -20 58 -28
58 -435 9 -337 -41 -374 -47 -395 -67 -48 -45 -22 -122 46 -136 l30 -5 0 -234
0 -233 -32 -6 c-18 -3 -163 -21 -323 -40 -283 -34 -291 -34 -315 -16 -33 24
-75 110 -102 207 -31 117 -31 372 0 499 26 103 68 191 103 216 19 14 207 40
889 122 476 58 873 105 884 106 13 1 17 -4 13 -16z m-2446 -118 l47 -6 -24
-75 c-13 -41 -31 -114 -39 -161 -18 -103 -20 -374 -4 -474 7 -38 10 -71 7 -74
-2 -3 -34 -2 -70 2 l-66 6 -11 41 c-6 22 -16 94 -23 159 -19 191 9 404 71 550
17 40 24 47 43 43 13 -3 44 -8 69 -11z m351 -36 c57 -6 109 -12 115 -14 9 -3
4 -24 -17 -72 -53 -127 -71 -215 -77 -379 -6 -169 10 -303 52 -429 13 -38 22
-70 22 -71 -2 -1 -203 23 -214 26 -6 1 -66 171 -78 222 -22 88 -30 314 -16
419 19 146 70 309 96 309 8 0 61 -5 117 -11z"/>
</g>
</svg>
